<?xml version="1.0" encoding="iso-8859-1"?>
<!-- Uploaded to: SVG Repo, www.svgrepo.com, Generator: SVG Repo Mixer Tools -->
<svg height="800px" width="800px" version="1.1" id="Layer_1" xmlns="http://www.w3.org/2000/svg" xmlns:xlink="http://www.w3.org/1999/xlink" 
	 viewBox="0 0 493.336 493.336" xml:space="preserve">
<path d="M493.16,168.76c-0.056-0.328-0.152-0.632-0.176-0.936c-0.128-0.6-0.2-1.184-0.392-1.768c-0.072-0.352-0.2-0.688-0.32-1.032
	c-0.168-0.544-0.328-1.024-0.52-1.544c-0.152-0.344-0.336-0.704-0.496-1.016c-0.208-0.496-0.448-0.968-0.728-1.424
	c-0.192-0.328-0.4-0.656-0.6-0.968c-0.264-0.456-0.56-0.904-0.88-1.304c-0.232-0.304-0.496-0.616-0.728-0.912
	c-0.336-0.408-0.712-0.792-1.08-1.16c-0.256-0.28-0.528-0.576-0.824-0.808c-0.4-0.368-0.8-0.728-1.2-1.04
	c-0.32-0.232-0.632-0.488-0.952-0.712c-0.144-0.088-0.224-0.176-0.36-0.272L258.44,3.552c-7.12-4.736-16.376-4.736-23.536,0
	L9.464,153.864c-0.128,0.096-0.24,0.184-0.352,0.272c-0.352,0.224-0.656,0.48-0.976,0.712c-0.416,0.312-0.8,0.672-1.176,1.04
	c-0.296,0.224-0.584,0.52-0.84,0.808c-0.376,0.368-0.736,0.752-1.056,1.16c-0.256,0.296-0.504,0.608-0.744,0.912
	c-0.32,0.4-0.6,0.848-0.872,1.304c-0.224,0.312-0.416,0.64-0.624,0.968c-0.248,0.456-0.496,0.92-0.704,1.424
	c-0.184,0.312-0.328,0.672-0.488,1.016c-0.216,0.52-0.384,1-0.552,1.544c-0.112,0.344-0.24,0.68-0.312,1.032
	c-0.176,0.576-0.264,1.168-0.392,1.768c-0.048,0.304-0.136,0.608-0.168,0.936c-0.12,0.888-0.2,1.816-0.2,2.76v150.304
	c0,0.936,0.088,1.864,0.2,2.784c0.032,0.28,0.12,0.592,0.168,0.904c0.128,0.608,0.208,1.168,0.392,1.768
	c0.072,0.352,0.2,0.704,0.312,1.04c0.168,0.512,0.336,1.024,0.552,1.552c0.16,0.328,0.296,0.672,0.488,1.016
	c0.2,0.488,0.456,0.936,0.704,1.416c0.208,0.328,0.4,0.656,0.624,0.976c0.272,0.472,0.552,0.872,0.872,1.288
	c0.232,0.312,0.488,0.608,0.744,0.912c0.32,0.392,0.68,0.784,1.056,1.16c0.256,0.272,0.544,0.56,0.84,0.824
	c0.384,0.36,0.768,0.704,1.176,1.024c0.32,0.224,0.624,0.488,0.976,0.712c0.112,0.096,0.224,0.176,0.352,0.272l225.44,150.312
	c3.568,2.376,7.664,3.552,11.784,3.552c4.104,0,8.2-1.176,11.76-3.552l225.448-150.32c0.136-0.096,0.216-0.176,0.36-0.272
	c0.32-0.224,0.632-0.488,0.952-0.712c0.408-0.32,0.808-0.664,1.2-1.024c0.288-0.256,0.56-0.544,0.824-0.824
	c0.368-0.376,0.744-0.768,1.08-1.16c0.232-0.304,0.496-0.6,0.728-0.912c0.32-0.416,0.616-0.824,0.88-1.288
	c0.2-0.32,0.408-0.648,0.6-0.976c0.28-0.48,0.512-0.928,0.728-1.416c0.168-0.344,0.352-0.688,0.496-1.016
	c0.192-0.528,0.36-1.04,0.52-1.552c0.12-0.336,0.248-0.688,0.32-1.04c0.184-0.592,0.264-1.16,0.392-1.768
	c0.032-0.312,0.128-0.624,0.176-0.904c0.104-0.912,0.168-1.84,0.168-2.784V171.512C493.328,170.568,493.264,169.648,493.16,168.76z
	 M267.848,60.824l166.12,110.712l-74.184,49.616l-91.928-61.472V60.824H267.848z M225.472,60.824v98.856l-91.896,61.472
	l-74.2-49.616L225.472,60.824z M42.392,211.176l53.072,35.496l-53.072,35.48C42.392,282.152,42.392,211.176,42.392,211.176z
	 M225.472,432.504L59.368,321.792l74.2-49.608l91.896,61.488v98.832H225.472z M246.68,296.808l-74.968-50.136l74.968-50.152
	l74.976,50.152L246.68,296.808z M267.848,432.504v-98.84l91.928-61.488l74.184,49.608L267.848,432.504z M450.928,282.152
	l-53.016-35.48l53.016-35.496V282.152z"/>
<path style="fill:#8A9499;" d="M492.984,167.824c-0.128-0.6-0.2-1.184-0.392-1.768c-0.072-0.352-0.2-0.688-0.32-1.032
	c-0.168-0.544-0.328-1.024-0.52-1.544c-0.152-0.344-0.336-0.704-0.496-1.016c-0.208-0.496-0.448-0.968-0.728-1.424
	c-0.192-0.328-0.4-0.656-0.6-0.968c-0.264-0.456-0.56-0.904-0.88-1.304c-0.232-0.304-0.496-0.616-0.728-0.912
	c-0.336-0.408-0.712-0.792-1.08-1.16c-0.256-0.28-0.528-0.576-0.824-0.808c-0.4-0.368-0.8-0.728-1.2-1.04
	c-0.32-0.232-0.632-0.488-0.952-0.712c-0.144-0.088-0.224-0.176-0.36-0.272L258.44,3.552c-7.12-4.736-16.376-4.736-23.536,0
	L9.464,153.864c-0.128,0.096-0.24,0.184-0.352,0.272c-0.352,0.224-0.656,0.48-0.976,0.712c-0.416,0.312-0.8,0.672-1.176,1.04
	c-0.296,0.224-0.584,0.52-0.84,0.808c-0.376,0.368-0.736,0.752-1.056,1.16c-0.256,0.296-0.504,0.608-0.744,0.912
	c-0.32,0.4-0.6,0.848-0.872,1.304c-0.224,0.312-0.416,0.64-0.624,0.968c-0.248,0.456-0.496,0.92-0.704,1.424
	c-0.184,0.312-0.328,0.672-0.488,1.016c-0.216,0.52-0.384,1-0.552,1.544c-0.112,0.344-0.24,0.68-0.312,1.032
	c-0.176,0.576-0.264,1.168-0.392,1.768c-0.048,0.304-0.136,0.608-0.168,0.936c-0.12,0.888-0.2,1.816-0.2,2.76v16.024L42.4,214.72
	v-3.536l53.072,35.496l-1.584,1.056l38.928,24.968l0.768-0.512l35.928,24.04l77.152,49.464l77.552-49.728l35.56-23.792l0.76,0.496
	l38.928-24.968l-1.552-1.04l53.016-35.496v3.544l42.4-27.184v-16.024c0-0.944-0.064-1.864-0.168-2.76
	C493.112,168.432,493.016,168.128,492.984,167.824z M59.368,171.528L225.472,60.824v98.856l-91.896,61.472L59.368,171.528z
	 M246.68,296.808l-74.968-50.136l74.968-50.152l74.976,50.152L246.68,296.808z M359.784,221.152l-91.928-61.472V60.824
	l166.12,110.712L359.784,221.152z"/>
<path style="fill:#5F6970;" d="M492.984,167.824c-0.128-0.6-0.2-1.184-0.392-1.768c-0.072-0.352-0.2-0.688-0.32-1.032
	c-0.168-0.544-0.328-1.024-0.52-1.544c-0.152-0.344-0.336-0.704-0.496-1.016c-0.208-0.496-0.448-0.968-0.728-1.424
	c-0.192-0.328-0.4-0.656-0.6-0.968c-0.264-0.456-0.56-0.904-0.88-1.304c-0.232-0.304-0.496-0.616-0.728-0.912
	c-0.336-0.408-0.712-0.792-1.08-1.16c-0.256-0.28-0.528-0.576-0.824-0.808c-0.4-0.368-0.8-0.728-1.2-1.04
	c-0.32-0.232-0.632-0.488-0.952-0.712c-0.144-0.088-0.224-0.176-0.36-0.272L258.44,27.552c-7.12-4.736-16.376-4.736-23.536,0
	L9.464,153.864c-0.128,0.096-0.24,0.184-0.352,0.272c-0.352,0.224-0.656,0.48-0.976,0.712c-0.416,0.312-0.8,0.672-1.176,1.04
	c-0.296,0.224-0.584,0.52-0.84,0.808c-0.376,0.368-0.736,0.752-1.056,1.16c-0.256,0.296-0.504,0.608-0.744,0.912
	c-0.32,0.4-0.6,0.848-0.872,1.304c-0.224,0.312-0.416,0.64-0.624,0.968c-0.248,0.456-0.496,0.92-0.704,1.424
	c-0.184,0.312-0.328,0.672-0.488,1.016c-0.216,0.52-0.384,1-0.552,1.544c-0.112,0.344-0.24,0.68-0.312,1.032
	c-0.176,0.576-0.264,1.168-0.392,1.768c-0.048,0.304-0.136,0.608-0.168,0.936c-0.12,0.888-0.2,1.816-0.2,2.76v16.024L42.4,214.72
	v-3.536l53.072,35.496l-1.584,1.056l38.928,24.968l0.768-0.512l35.928,24.04l77.152,49.464l77.552-49.728l35.56-23.792l0.76,0.496
	l38.928-24.968l-1.552-1.04l53.016-35.496v3.544l42.4-27.184v-16.024c0-0.944-0.064-1.864-0.168-2.76
	C493.112,168.432,493.016,168.128,492.984,167.824z M43.368,163.528L225.472,60.824l16,106.856l-107.896,53.472L43.368,163.528z
	 M246.68,296.808l-74.968-50.136l74.968-50.152l74.976,50.152L246.68,296.808z M359.784,221.152L251.856,167.68l16-106.856
	l182.12,102.712L359.784,221.152z"/>
</svg>